<svg class="traffordDataLabLogo" xmlns="http://www.w3.org/2000/svg" xmlns:xlink="http://www.w3.org/1999/xlink" version="1.1" id="Layer_1" x="0px" y="0px" viewBox="0 0 300 100" xml:space="preserve" style="fill: #757575;">
	<path d="M93.642,82.3L83.073,64.896c-1.998-3.294-3.686-9.331-3.688-13.181v-9.907h3.792c1.43,0,2.586-1.162,2.586-2.586  c0-1.43-1.156-2.586-2.586-2.586h-6.376h-0.002h-9.382c-0.003,0-0.005,0-0.008,0h-6.368c-1.427,0-2.586,1.162-2.586,2.586  c0,1.43,1.159,2.586,2.586,2.586h3.792l0.002,5.239l-0.002,4.663c-0.003,3.854-1.69,9.892-3.688,13.181L50.576,82.3  c-1.563,2.576-1.786,5.249-0.611,7.335c1.175,2.087,3.574,3.284,6.588,3.284H87.67c0,0,0,0,0.003,0c3.011,0,5.41-1.197,6.583-3.284  C95.43,87.549,95.205,84.876,93.642,82.3z M65.568,67.573c2.485-4.092,4.436-11.059,4.438-15.863l0.003-4.663l-0.003-5.239h4.206  v9.907c0.003,4.795,1.952,11.762,4.438,15.863l5.19,8.548c-0.646-0.142-1.18-0.328-1.748-0.535c-1.22-0.435-2.599-0.935-5.214-0.935  c-2.614,0-3.993,0.495-5.213,0.935c-1.167,0.419-2.175,0.783-4.34,0.783c-2.157,0-3.165-0.364-4.33-0.783  c-0.57-0.207-1.187-0.419-1.935-0.591L65.568,67.573z M89.747,87.1c-0.18,0.323-0.893,0.646-2.082,0.646H56.553  c-1.185,0-1.899-0.323-2.079-0.646c-0.182-0.324-0.091-1.102,0.525-2.117l4.623-7.613c1.003,0.137,1.729,0.379,2.498,0.656  c1.218,0.435,2.597,0.935,5.206,0.935c2.614,0,3.996-0.495,5.214-0.935c1.169-0.419,2.177-0.782,4.339-0.782  c2.163,0,3.171,0.363,4.338,0.782c1.063,0.385,2.301,0.788,4.319,0.895l3.686,6.067C89.835,85.998,89.929,86.775,89.747,87.1z   M72.118,20.251l-1.112,1.783c-0.777,1.253-2.261,2.92-2.541,3.238c-0.949,1.021-1.473,2.38-1.473,3.825  c0,3.006,2.297,5.451,5.118,5.451s5.115-2.445,5.115-5.451c0-1.344-0.452-2.617-1.278-3.612l-0.132-0.151  c-0.018-0.021-0.035-0.036-0.053-0.056l-0.051-0.056c-0.265-0.293-1.768-1.96-2.503-3.173L72.118,20.251z M73.742,27.046  l0.247,0.131c0.42,0.525,0.649,1.202,0.649,1.92c0,1.576-1.134,2.864-2.528,2.864s-2.531-1.288-2.531-2.864  c0-0.793,0.278-1.526,0.804-2.092c0.285-0.318,1.008-1.137,1.718-2.051c0.623,0.798,1.255,1.515,1.563,1.859L73.742,27.046z   M42.665,80.031V12.254h26.858v6.27h5.174V9.667c0-1.43-1.16-2.586-2.587-2.586H17.273c-1.427,0-2.586,1.157-2.586,2.586v14.625  h-4.325c-0.391,0-0.76,0.177-1.008,0.48C9.109,25.081,9.016,25.48,9.1,25.859l1.427,6.527h-2.94C6.159,32.386,5,33.543,5,34.973  c0,1.43,1.159,2.586,2.586,2.586h1.526v23.986c0,4.558,3.708,8.266,8.268,8.271h0.002c2.208-0.005,4.284-0.864,5.845-2.425  c1.563-1.562,2.425-3.638,2.422-5.846v-5.112c0.071-0.156,0.111-0.333,0.111-0.516c0-0.187-0.04-0.358-0.111-0.515V37.56h1.531  c0.947,0,1.74-0.536,2.19-1.293h10.708v43.765c-0.758,0.45-1.293,1.243-1.293,2.192v6.815H27.299c-0.091,0-0.169,0.035-0.255,0.051  c-0.444-0.788-1.255-1.344-2.225-1.344h-4.062c1.283-1.895,1.665-3.996,1.076-6.22c-0.5-1.889-1.18-2.854-1.725-3.627  c-0.73-1.035-1.309-1.854-1.309-5.391c0-0.005-0.002-0.01-0.002-0.015c-0.002-0.111-0.036-0.223-0.066-0.328  c-0.015-0.056-0.015-0.116-0.038-0.167c-0.03-0.065-0.081-0.116-0.119-0.177c-0.053-0.081-0.094-0.167-0.162-0.232  c-0.035-0.035-0.083-0.051-0.124-0.081c-0.093-0.076-0.187-0.146-0.298-0.192c-0.005-0.005-0.01-0.01-0.016-0.01  c-0.073-0.03-0.146-0.025-0.222-0.04c-0.083-0.016-0.159-0.051-0.248-0.051c-0.005,0-0.013,0.005-0.018,0.005  c-0.088,0-0.169,0.03-0.255,0.051c-0.081,0.021-0.167,0.025-0.243,0.056c-0.02,0.01-0.033,0.025-0.051,0.035  c-0.131,0.065-0.255,0.142-0.356,0.242c-0.025,0.025-0.038,0.066-0.061,0.097c-0.083,0.101-0.164,0.201-0.212,0.323  c-0.002,0.01-0.007,0.01-0.01,0.015c-0.69,1.773-1.513,3.254-2.238,4.563c-1.611,2.904-3.003,5.415-1.672,8.886  c0.41,1.076,1.026,1.759,1.632,2.259H9.946c-1.43,0-2.587,1.156-2.587,2.586s1.157,2.587,2.587,2.587h14.873  c0.967,0,1.781-0.556,2.225-1.344c0.086,0.021,0.165,0.051,0.255,0.051h11.882c0.449,0.763,1.243,1.293,2.19,1.293  c1.43,0,2.586-1.157,2.586-2.587v-8.108C43.958,81.274,43.425,80.481,42.665,80.031z M16.326,77.854  c0.137-0.248,0.286-0.541,0.43-0.799c0.308,0.935,0.728,1.611,1.238,2.334c0.492,0.697,0.957,1.359,1.338,2.799  c0.5,1.885-0.027,3.582-1.579,5.158c-0.389-0.449-0.874-0.763-1.273-1.011c-0.702-0.439-1.311-0.818-1.675-1.772  C13.944,82.314,14.692,80.8,16.326,77.854z M11.969,26.88h10.935l-1.205,5.506h-8.528L11.969,26.88z M21.401,65.563  c-1.076,1.071-2.503,1.667-4.021,1.667c-3.132-0.005-5.681-2.551-5.681-5.684v-5.031c0.209,0.056,0.404,0.121,0.611,0.197  c0.646,0.232,1.382,0.495,2.779,0.495c1.396,0,2.132-0.263,2.781-0.495c0.538-0.192,0.96-0.344,1.907-0.344s1.372,0.151,1.907,0.344  c0.384,0.136,0.816,0.282,1.379,0.379v4.455C23.066,63.062,22.475,64.486,21.401,65.563z M23.063,54.443  c-0.169-0.051-0.333-0.102-0.502-0.167c-0.649-0.232-1.387-0.495-2.784-0.495s-2.132,0.263-2.781,0.495  c-0.535,0.192-0.96,0.344-1.907,0.344c-0.945,0-1.367-0.151-1.902-0.344c-0.407-0.146-0.869-0.298-1.488-0.399V37.56h11.364V54.443z   M29.371,33.68c-0.45-0.763-1.243-1.293-2.19-1.293h-2.832l1.424-6.527c0.083-0.379-0.01-0.778-0.255-1.086  c-0.248-0.303-0.617-0.48-1.008-0.48h-4.65V12.254h20.218V33.68H29.371z M14.399,48.148c0-0.712,0.579-1.293,1.293-1.293  s1.293,0.581,1.293,1.293c0,0.717-0.579,1.293-1.293,1.293S14.399,48.866,14.399,48.148z M18.956,44.93  c0-0.712,0.578-1.293,1.293-1.293s1.293,0.581,1.293,1.293c0,0.718-0.579,1.293-1.293,1.293S18.956,45.648,18.956,44.93z   M14.849,40.515c0-0.718,0.579-1.293,1.293-1.293s1.293,0.576,1.293,1.293c0,0.712-0.578,1.293-1.293,1.293  S14.849,41.227,14.849,40.515z M15.637,82.4l-0.033-0.379c-0.063-0.712,0.459-1.344,1.172-1.409c0.71-0.045,1.339,0.46,1.405,1.172  l0.035,0.404c0.048,0.586,0.108,1.313,0.268,1.592c0.354,0.621,0.139,1.409-0.48,1.763c-0.205,0.116-0.424,0.172-0.642,0.172  c-0.449,0-0.886-0.232-1.124-0.651C15.793,84.29,15.715,83.33,15.637,82.4z"/>
	<g aria-label="Trafford">
		<path d="M 132.11279,10.944336 H 120.91553 V 42 H 116.3457 V 10.944336 H 105.17236 V 7.1640625 h 26.94043 z"/>
		<path d="m 147.32959,20.083984 q -1.00488,-0.16748 -2.17725,-0.16748 -4.35449,0 -5.90966,3.708496 V 42 h -4.42627 V 16.112305 h 4.30664 l 0.0718,2.990722 q 2.17725,-3.469238 6.17286,-3.469238 1.29199,0 1.96191,0.334961 z"/>
		<path d="m 166.39844,42 q -0.38282,-0.765625 -0.62207,-2.727539 -3.08643,3.206055 -7.36914,3.206055 -3.82813,0 -6.29248,-2.153321 -2.44043,-2.177246 -2.44043,-5.502929 0,-4.043457 3.0625,-6.268555 3.08642,-2.249024 8.66113,-2.249024 h 4.30664 v -2.033691 q 0,-2.320801 -1.3877,-3.68457 -1.38769,-1.387696 -4.0913,-1.387696 -2.36866,0 -3.97168,1.19629 -1.60303,1.196289 -1.60303,2.895019 h -4.4502 q 0,-1.937988 1.36377,-3.732422 1.3877,-1.818359 3.73242,-2.871094 2.36866,-1.052734 5.1919,-1.052734 4.47412,0 7.01025,2.249023 2.53614,2.225098 2.63184,6.148926 v 11.915039 q 0,3.564942 0.90918,5.67041 V 42 Z m -7.34522,-3.373535 q 2.08155,0 3.94776,-1.07666 1.86621,-1.07666 2.70361,-2.799317 v -5.311523 h -3.46924 q -8.13476,0 -8.13476,4.76123 0,2.081543 1.38769,3.253907 1.3877,1.172363 3.56494,1.172363 z"/>
		<path d="M 179.29443,42 V 19.533691 h -4.09131 v -3.421386 h 4.09131 v -2.655762 q 0,-4.163086 2.2251,-6.4360352 2.2251,-2.2729492 6.29248,-2.2729492 1.53125,0 3.03858,0.4067383 l -0.23926,3.5888672 q -1.12451,-0.2153321 -2.39258,-0.2153321 -2.15332,0 -3.32568,1.2680664 -1.17237,1.2441406 -1.17237,3.5888676 v 2.727539 h 5.52686 v 3.421386 H 183.7207 V 42 Z"/>
		<path d="M 196.32959,42 V 19.533691 h -4.09131 v -3.421386 h 4.09131 v -2.655762 q 0,-4.163086 2.2251,-6.4360352 2.2251,-2.2729492 6.29248,-2.2729492 1.53125,0 3.03857,0.4067383 l -0.23926,3.5888672 q -1.12451,-0.2153321 -2.39257,-0.2153321 -2.15332,0 -3.32569,1.2680664 -1.17236,1.2441406 -1.17236,3.5888676 v 2.727539 h 5.52685 v 3.421386 h -5.52685 V 42 Z"/>
		<path d="m 210.01514,28.816895 q 0,-3.8042 1.4834,-6.842774 1.50732,-3.038574 4.16308,-4.689453 2.67969,-1.650879 6.10108,-1.650879 5.28759,0 8.5415,3.660645 3.27783,3.660644 3.27783,9.737793 v 0.311035 q 0,3.780273 -1.45947,6.794922 -1.43555,2.990722 -4.13916,4.665527 -2.67969,1.674805 -6.17285,1.674805 -5.26368,0 -8.54151,-3.660645 -3.2539,-3.660644 -3.2539,-9.689941 z m 4.45019,0.526367 q 0,4.30664 1.98584,6.91455 2.00977,2.607911 5.35938,2.607911 3.37353,0 5.35937,-2.631836 1.98584,-2.655762 1.98584,-7.416992 0,-4.25879 -2.03369,-6.890625 -2.00977,-2.655762 -5.35937,-2.655762 -3.27784,0 -5.2876,2.60791 -2.00977,2.60791 -2.00977,7.464844 z"/>
		<path d="m 251.646,20.083984 q -1.00489,-0.16748 -2.17725,-0.16748 -4.35449,0 -5.90967,3.708496 V 42 h -4.42627 V 16.112305 h 4.30664 l 0.0718,2.990722 q 2.17725,-3.469238 6.17285,-3.469238 1.29199,0 1.96192,0.334961 z"/>
		<path d="m 254.13428,28.84082 q 0,-5.957519 2.82324,-9.570312 2.82324,-3.636719 7.39307,-3.636719 4.54589,0 7.20166,3.110352 V 5.25 h 4.42627 V 42 h -4.06739 l -0.21533,-2.775391 q -2.65576,3.253907 -7.39307,3.253907 -4.49804,0 -7.34521,-3.684571 -2.82324,-3.68457 -2.82324,-9.618164 z m 4.42627,0.502442 q 0,4.402343 1.81836,6.890625 1.81836,2.488281 5.02441,2.488281 4.21094,0 6.14893,-3.780273 V 23.050781 q -1.98584,-3.660644 -6.10108,-3.660644 -3.2539,0 -5.07226,2.512207 -1.81836,2.512207 -1.81836,7.440918 z"/>
	</g>
	<g aria-label="Data">
		<path d="M 107.65284,92.78125 V 57.945312 h 9.8335 q 4.54589,0 8.03906,2.009766 3.49316,2.009766 5.3833,5.718262 1.91406,3.708496 1.93799,8.517578 v 2.225098 q 0,4.928711 -1.91407,8.637207 -1.89013,3.708496 -5.43115,5.694336 -3.51709,1.985839 -8.20654,2.033691 z m 4.59375,-31.055664 v 27.299316 h 4.83301 q 5.31152,0 8.25439,-3.301757 2.9668,-3.301758 2.9668,-9.402833 v -2.033691 q 0,-5.933594 -2.79932,-9.211426 -2.77539,-3.301758 -7.89551,-3.349609 z"/>
		<path d="m 155.09766,92.78125 q -0.38281,-0.765625 -0.62207,-2.727539 -3.08642,3.206055 -7.36914,3.206055 -3.82812,0 -6.29248,-2.153321 -2.44043,-2.177246 -2.44043,-5.502929 0,-4.043457 3.0625,-6.268555 3.08643,-2.249024 8.66114,-2.249024 h 4.30664 v -2.033691 q 0,-2.320801 -1.3877,-3.68457 -1.38769,-1.387696 -4.09131,-1.387696 -2.36865,0 -3.97168,1.19629 -1.60302,1.196289 -1.60302,2.895019 h -4.4502 q 0,-1.937988 1.36377,-3.732422 1.38769,-1.818359 3.73242,-2.871094 2.36865,-1.052734 5.1919,-1.052734 4.47412,0 7.01025,2.249023 2.53613,2.225098 2.63184,6.148926 v 11.915039 q 0,3.564942 0.90918,5.67041 v 0.382813 z m -7.34521,-3.373535 q 2.08154,0 3.94775,-1.07666 1.86621,-1.07666 2.70362,-2.799317 v -5.311523 h -3.46924 q -8.13477,0 -8.13477,4.76123 0,2.081543 1.3877,3.253907 1.38769,1.172363 3.56494,1.172363 z"/>
		<path d="m 171.82178,60.625 v 6.268555 h 4.83301 v 3.421386 h -4.83301 v 16.0542 q 0,1.555175 0.646,2.344726 0.646,0.765625 2.20117,0.765625 0.76563,0 2.10547,-0.287109 v 3.588867 q -1.74658,0.478516 -3.39746,0.478516 -2.9668,0 -4.47412,-1.794434 -1.50732,-1.794434 -1.50732,-5.096191 v -16.0542 h -4.71338 v -3.421386 h 4.71338 V 60.625 Z"/>
		<path d="m 197.78126,92.78125 q -0.38281,-0.765625 -0.62207,-2.727539 -3.08643,3.206055 -7.36914,3.206055 -3.82813,0 -6.29248,-2.153321 -2.44043,-2.177246 -2.44043,-5.502929 0,-4.043457 3.0625,-6.268555 3.08642,-2.249024 8.66113,-2.249024 h 4.30664 v -2.033691 q 0,-2.320801 -1.3877,-3.68457 -1.38769,-1.387696 -4.0913,-1.387696 -2.36866,0 -3.97168,1.19629 -1.60303,1.196289 -1.60303,2.895019 h -4.4502 q 0,-1.937988 1.36377,-3.732422 1.3877,-1.818359 3.73243,-2.871094 2.36865,-1.052734 5.19189,-1.052734 4.47412,0 7.01025,2.249023 2.53614,2.225098 2.63184,6.148926 v 11.915039 q 0,3.564942 0.90918,5.67041 v 0.382813 z m -7.34522,-3.373535 q 2.08155,0 3.94776,-1.07666 1.86621,-1.07666 2.70361,-2.799317 v -5.311523 h -3.46924 q -8.13476,0 -8.13476,4.76123 0,2.081543 1.38769,3.253907 1.3877,1.172363 3.56494,1.172363 z"/>
	</g>
	<g aria-label="Lab">
		<path d="m 224.05176,89.024902 h 16.50879 V 92.78125 H 219.43408 V 57.945312 h 4.61768 z"/>
		<path d="m 261.13672,92.78125 q -0.38281,-0.765625 -0.62207,-2.727539 -3.08643,3.206055 -7.36914,3.206055 -3.82813,0 -6.29248,-2.153321 -2.44043,-2.177246 -2.44043,-5.502929 0,-4.043457 3.0625,-6.268555 3.08642,-2.249024 8.66113,-2.249024 h 4.30664 v -2.033691 q 0,-2.320801 -1.38769,-3.68457 -1.3877,-1.387696 -4.09131,-1.387696 -2.36866,0 -3.97168,1.19629 -1.60303,1.196289 -1.60303,2.895019 h -4.4502 q 0,-1.937988 1.36377,-3.732422 1.3877,-1.818359 3.73243,-2.871094 2.36865,-1.052734 5.19189,-1.052734 4.47412,0 7.01025,2.249023 2.53614,2.225098 2.63184,6.148926 v 11.915039 q 0,3.564942 0.90918,5.67041 v 0.382813 z m -7.34522,-3.373535 q 2.08155,0 3.94776,-1.07666 1.86621,-1.07666 2.70361,-2.799317 v -5.311523 h -3.46924 q -8.13476,0 -8.13476,4.76123 0,2.081543 1.38769,3.253907 1.3877,1.172363 3.56494,1.172363 z"/>
		<path d="m 293.77148,80.124512 q 0,5.933593 -2.72753,9.546386 -2.72754,3.588868 -7.32129,3.588868 -4.90479,0 -7.58448,-3.469239 l -0.21533,2.990723 h -4.06738 v -36.75 h 4.42627 v 13.709473 q 2.67969,-3.325684 7.39306,-3.325684 4.71338,0 7.39307,3.564941 2.70361,3.564942 2.70361,9.761719 z m -4.42627,-0.502442 q 0,-4.521972 -1.74658,-6.986328 -1.74658,-2.464355 -5.02441,-2.464355 -4.37842,0 -6.29248,4.067383 v 11.197265 q 2.03369,4.067383 6.34033,4.067383 3.18213,0 4.95264,-2.464356 1.7705,-2.464355 1.7705,-7.416992 z"/>
	</g>
</svg>